<svg xmlns="http://www.w3.org/2000/svg" width="105" height="101" fill="none"><path d="M32.656 52.25c0-17.435 14.133-31.568 31.567-31.568S95.79 34.815 95.79 52.249v42.452H32.656V52.25z" fill="#007BE9"/><path d="M15.24 94.701h80.55v6.532H15.24v-6.532z" fill="#0057C3"/><path d="M90.692 26.428a9.245 9.245 0 00-3.341-2.503 9.722 9.722 0 00-4.164-.828c-1.171-4.125-4.554-7.686-8.509-9.633-6.02-2.998-13.256-3.167-19.87-2.444-6.76.738-13.489 2.777-19.127 6.405-5.142 3.223-9.249 7.73-11.87 13.025-2.738 5.657-3.244 12.06-1.424 18.042a22.259 22.259 0 001.797 4.15c.28.513 1.079.093.814-.4-2.934-5.22-3.48-11.462-1.942-17.16 1.55-5.391 4.725-10.235 9.134-13.937 4.692-3.949 10.33-6.746 16.424-8.147a51.326 51.326 0 019.808-1.363 40.865 40.865 0 019.555.558 22.17 22.17 0 018.509 3.382c2.293 1.582 4.1 3.717 5.233 6.185.21.462.39.936.54 1.42-2.006.166-3.877 1.029-5.255 2.423a4.931 4.931 0 00-1.187 1.757 4.727 4.727 0 00-.319 2.066c.059.655.31 1.282.725 1.81.415.526.977.933 1.622 1.172.706.189 1.453.19 2.16.004a4.051 4.051 0 001.849-1.06 6.483 6.483 0 001.732-4.1 10.857 10.857 0 00-.178-3.243 9.198 9.198 0 014.537 1.24c5.32 3.152 3.977 10.038 2.482 14.814a57.201 57.201 0 01-8.357 16.54c-3.512 4.812-8.018 10.07-14.406 11.227-1.509.29-3.065.28-4.57-.03-.571-.123-.863.701-.285.825 3.323.712 6.798-.026 9.711-1.6 2.914-1.572 5.32-3.878 7.43-6.333a58.119 58.119 0 0010.056-16.755 38.3 38.3 0 002.525-9.013c.378-2.957.06-6.093-1.84-8.496zm-8.687 3.156c-.604 1.19-1.834 2.173-3.291 2.086-1.311-.077-2.158-1.169-2.325-2.327-.2-1.327.593-2.597 1.575-3.479a7.425 7.425 0 013.167-1.645c.436-.106.88-.18 1.327-.22.11.507.183 1.02.216 1.537a7.863 7.863 0 01-.669 4.048z" fill="url(#subscribe-type1_svg__paint0_linear_1963:10505)"/><path d="M74.11 45.054a5.12 5.12 0 00-.865-.563 1.248 1.248 0 00.512-.876.994.994 0 00-.414-.937 1.024 1.024 0 00-1.183.103 14.34 14.34 0 00-2.965-3.994 26.196 26.196 0 00-1.536-1.352 3.328 3.328 0 00-1.132-3.164 2.673 2.673 0 00-3.348-.026c-1.07-.43-2.187-.778-3.252-.41a2.776 2.776 0 00-1.792 1.71 2.336 2.336 0 00-2.224.145 2.417 2.417 0 00-.771.762c-1.024 1.536-.425 3.38.25 4.905.513 1.839 2.56 2.96 3.805 4.097a20.552 20.552 0 014.337 5.524 20.125 20.125 0 011.536 3.687.45.45 0 00.512.333 9.11 9.11 0 005.51-3.584 8.976 8.976 0 001.643-5.48c.46.088.935.045 1.373-.122a.425.425 0 00.235-.358.47.47 0 00-.23-.4z" fill="#17264D"/><path d="M69.021 59.693c-.6.65-1.262 1.24-1.976 1.762-2.56 1.843-6.037 2.693-9.002 1.295a6.448 6.448 0 01-3.645-5.12l.588.077.354.046 3.83.512c-.113-.733-.241-1.567-.38-2.33a38.93 38.93 0 00-.168-.876 4.897 4.897 0 00-.435-1.495l5.586-1.495.932 6.964.763.107c.727.103 1.46.205 2.186.323.19.026.379.056.563.092l.804.138z" fill="#F6B399"/><path d="M66.277 48.065a7.03 7.03 0 11-14.06 0 7.03 7.03 0 0114.06 0z" fill="#F6B399"/><path d="M69.021 49.6c-1.94 3.365-6.625 4.297-10.46 2.08-3.616-2.09-5.188-6.221-3.733-9.504a4.61 4.61 0 01.302-.594c.162-.29.35-.564.563-.819 2.181-2.683 6.39-3.287 9.898-1.26 3.814 2.213 5.356 6.739 3.43 10.098z" fill="#F6B399"/><path d="M68.391 52.422a2.857 2.857 0 11-2.852-2.724 2.79 2.79 0 012.852 2.724z" fill="#F6B399"/><path d="M67.26 52.371a4.608 4.608 0 00-2.514-.916.435.435 0 10-.046.87c.102 0 .204 0 .312.026.268.043.532.11.789.2.097.035.19.071.286.117.243.123.476.265.697.425a.435.435 0 00.599-.123.445.445 0 00-.123-.599z" fill="#EE796A"/><path d="M34.91 80.385l-.984.363c-4.547 1.68-9.165 3.462-14.02 3.835-2.442.185-4.992 0-7.168-1.218A7.17 7.17 0 019 78.106c-.348-2.37.246-4.757.814-7.045a400.709 400.709 0 012.049-7.968 482.325 482.325 0 014.352-15.412l-1.664-1.45a54.94 54.94 0 01-3.242-.926 54.32 54.32 0 01-7.132-2.872 8.316 8.316 0 01-2.862-1.92 3.17 3.17 0 01-.717-2.801 2.673 2.673 0 01-.318-1.537c.118-1.1.932-2.16 2.115-2.13a2.314 2.314 0 011.715-1.32c1.024-.088 1.757.737 2.31 1.469.472.65 1.001 1.257 1.582 1.813a10.974 10.974 0 01-.277-1.782 3.584 3.584 0 01.164-1.536 1.659 1.659 0 011.178-1.055 2.047 2.047 0 011.649.414c.86.692 1.234 1.823 1.618 2.822.31.962.739 1.882 1.275 2.74a3.657 3.657 0 002.621 1.535c1.324.102 2.653.114 3.979.036l4.285-.056c2.049-.026 4.583.22 5.408 2.453a7.312 7.312 0 01.174 3.394c-.17 1.424-.349 2.852-.512 4.276-.343 2.867-.697 5.74-1.024 8.607-.246 2.048-1.158 4.834-1.403 6.861.365-.237.717-.496 1.054-.773a9.23 9.23 0 00.61-.512c.384-.307.747-.589 1.024-.752a256.757 256.757 0 013.072 10.015 491.544 491.544 0 012.012 7.69z" fill="#F6B399"/><path d="M68.868 51.444c-.067.41-.128.512-.477.282-1.024-.717-3.026-.558-3.794.466-.25.328-.727.512-.696.051a7.915 7.915 0 011.986-4.71c.513-.595 1.081-1.194.994-2.049a4.84 4.84 0 00-1.116-2.278 21.443 21.443 0 01-8.987-4.097.47.47 0 01.108-.788 1.987 1.987 0 011.73-1.5 8.797 8.797 0 013.032.297c3.21.701 6.441 2.498 7.998 5.509 1.423 2.796 1.372 6.421-.778 8.817zM54.822 43.912a.81.81 0 111.535.513.81.81 0 01-1.535-.513z" fill="#17264D"/><path d="M56.994 41.92a.435.435 0 00-.774.4 2.412 2.412 0 01-.645 2.611c-.42.374-1.024.512-1.31 1.024a1.06 1.06 0 00.286 1.45c.512.27.968-.456.476-.728-.076-.04-.087-.128-.035-.245.087-.22.389-.349.578-.456a3.262 3.262 0 001.424-4.07v.014z" fill="#EE796A"/><path d="M57.168 41.28a1.097 1.097 0 00-.512-.717c-.512-.348-1.434-.665-1.864.046-.043.063-.079.13-.108.2-.271.799 1.342 1.629 1.972 1.352a.835.835 0 00.512-.88zM59.503 45.684a.81.81 0 111.535.513.81.81 0 01-1.535-.513z" fill="#17264D"/><path d="M58.402 48.705a.445.445 0 00-.59-.184 5.796 5.796 0 01-2.733.773.44.44 0 00-.456.41.431.431 0 00.41.455 6.656 6.656 0 003.184-.87.446.446 0 00.185-.584zM13.414 42.494c-2.74-1.69-4.91-4.675-5.335-7.911a2.698 2.698 0 01.84-2.56c.445-.338-.139-.983-.58-.64-1.668 1.28-1.202 3.681-.593 5.391a12.483 12.483 0 005.192 6.447c.476.292.952-.435.476-.727z" fill="#EE796A"/><path d="M12.318 43.354a19.617 19.617 0 01-7.168-4.64c-.942-.962-2.084-2.124-2.32-3.502a1.971 1.971 0 01.43-1.628 1.208 1.208 0 011.368-.404 3.19 3.19 0 011.356 1.428c.512.799.973 1.603 1.46 2.402.286.476 1.06.082.768-.4L6.758 34.21a4.875 4.875 0 00-1.424-1.639 2.048 2.048 0 00-2.048-.117 2.673 2.673 0 00-1.26 1.612c-.466 1.624.62 3.15 1.618 4.312a20.399 20.399 0 008.377 5.801c.548.19.82-.635.297-.824z" fill="#EE796A"/><path d="M11.95 44.68a21.36 21.36 0 01-6.56-2.837 19.815 19.815 0 01-2.847-2.212c-.768-.727-1.607-1.648-1.694-2.76-.067-.88.512-2.048 1.536-2.017a.436.436 0 00.04-.865 2.484 2.484 0 00-2.319 1.925c-.343 1.234.19 2.447.963 3.405a15.257 15.257 0 002.954 2.637 22.213 22.213 0 007.66 3.584c.533.098.81-.727.267-.86z" fill="#EE796A"/><path d="M7.725 43.4c-1.48-.686-3.144-.911-4.608-1.674-1.244-.66-2.37-1.859-2.11-3.37a.435.435 0 00-.41-.455.44.44 0 00-.455.41c-.292 1.684.88 3.205 2.263 4.009 1.572.911 3.4 1.147 5.034 1.904a.435.435 0 00.547-.27.456.456 0 00-.26-.554z" fill="#EE796A"/><path d="M42.38 77.502c.46 4.05 1.143 8.07 2.048 12.043l1.29 5.157h41.364l-1.322-2.438c-1.388-6.175-.876-12.601-2.412-18.746a22.474 22.474 0 00-3.072-7.199 14.419 14.419 0 00-6.017-5.12 20.232 20.232 0 00-3.584-1.183l-.706-.154-.917-.179c-.6.65-1.263 1.24-1.977 1.762-2.555 1.843-6.036 2.693-9.001 1.295a6.446 6.446 0 01-3.646-5.12l-.768-.098-.865-.107-2.484-.313a45.283 45.283 0 00-5.064-.399c-1.551-.02-3.099.151-4.608.512a21.93 21.93 0 00-3.63 1.3 57.06 57.06 0 00-6.744 3.861l-.512.308a282.533 282.533 0 013.072 10.015c.71 2.56 1.407 5.12 2.09 7.68l.737-.27c2.253-.825 4.506-1.68 6.728-2.607z" fill="#7AC7FF"/><path d="M53.491 75.341a.348.348 0 01-.143.39c-.062.05-.123.086-.19.133-.235.332-.414.373-.573.332a5.12 5.12 0 01-5.535-.773c-1.843-1.659-1.629-4.362-2.663-6.446a7.168 7.168 0 00-3.538-3.416c-.568-.24-1.167-.379-1.73-.635a2.724 2.724 0 01-1.317-1.116 1.694 1.694 0 01-.056-1.684 1.823 1.823 0 011.49-.856 5.028 5.028 0 01-.707-.245c-.957-.41-1.715-1.245-1.536-2.35a2.048 2.048 0 011.024-1.485 2.923 2.923 0 01-.271-.23 1.966 1.966 0 01-.384-2.351c.553-.86 1.7-.758 2.56-.66a15.536 15.536 0 017.046 2.667 12.504 12.504 0 00-2.048-3.277 11.78 11.78 0 00-1.152-1.162 5.748 5.748 0 01-1.086-1.117 1.674 1.674 0 01.824-2.463c1.076-.465 2.166.047 3.001.743.83.707 1.576 1.508 2.222 2.386 2.56 3.426 3.738 7.624 4.793 11.71a.415.415 0 01.133.22c.256.989.512 1.982.712 2.986.553 2.898.645 6.108-.876 8.7z" fill="#F6B399"/><path d="M77.101 83.396c-3.133 6.61-5.161 10.553-8.423 14.07-2.135 2.305-4.004 2.305-7.603 2.305-5.013 0-8.536-4.097-11.342-14.179-.768-2.75-2.683-10.184-2.683-10.184s2.6-6.078 3.041-6.442c.44-.363 3.876-2.918 3.876-2.918l7.087 14.654.369.763c.188-.272.36-.556.512-.85a21.377 21.377 0 001.89-4.705L77.1 83.396z" fill="#F6B399"/><path d="M77.728 82.78L64 75.612c1.167-3.963 2.56-8.137 3.722-9.601 2.412-3.072 6.288-5.32 11.951 1.178 3.508 4.03.733 10.03-1.945 15.591z" fill="#7AC7FF"/><path d="M47.792 65.218a14.633 14.633 0 00-4.04-2.786 13.787 13.787 0 00-2.32-.84 5.833 5.833 0 00-2.616-.265 2.012 2.012 0 00-1.664 1.725c-.051.558.82.6.865.046.082-.937 1.275-1.024 1.972-.927.899.136 1.779.377 2.622.717a13.544 13.544 0 014.541 2.909c.4.389 1.045-.19.64-.579z" fill="#EE796A"/><path d="M48.97 61.542a12.653 12.653 0 00-5.904-4.23 10.271 10.271 0 00-3.743-.645c-1.239.056-2.616.702-2.795 2.074a2.387 2.387 0 00.727 1.92 5.365 5.365 0 002.022 1.147.436.436 0 00.277-.824c-.902-.333-2.29-.927-2.166-2.115.123-1.188 1.49-1.372 2.38-1.336a11.45 11.45 0 015.981 2.114 11.73 11.73 0 012.56 2.479c.359.44 1.004-.144.661-.584z" fill="#EE796A"/><path d="M49.59 58.428a11.945 11.945 0 00-5.469-4.065 17.75 17.75 0 00-3.533-1.024c-1.178-.205-2.535-.113-3.426.788-.89.901-.937 2.427.139 3.175.46.322.931-.405.476-.727-.722-.512-.415-1.536.174-1.987.876-.681 2.094-.512 3.072-.276a15.736 15.736 0 015.545 2.345 9.648 9.648 0 012.35 2.345.435.435 0 00.61.036.445.445 0 00.062-.61zM63.194 54.92a9.217 9.217 0 01-4.403 1.025 39.038 39.038 0 00-.17-.876 8.326 8.326 0 004.174-.911.435.435 0 01.4.763zM28.145 63.938l-1.623 7.972a.435.435 0 01-.548.277.45.45 0 01-.276-.548l1.433-6.928c.352-.239.69-.497 1.014-.773zM64.74 88.516a7566.195 7566.195 0 00-3.645-7.68c-.041-.129.328.634.328.634.188-.272.36-.556.512-.85 1.188 2.489 2.376 4.987 3.584 7.476.235.517-.533.932-.778.42z" fill="#EE796A"/><path d="M62.365 42.227a2.56 2.56 0 00-1.296-.332.932.932 0 00-.799.389.727.727 0 000 .778c.098.481.938.707 1.322.85.624.23 1.213.512 1.812.789a.44.44 0 00.563-.512 3.385 3.385 0 00-1.602-1.962z" fill="#17264D"/><path d="M45.882 94.42h-.901c-.341-1.161-.664-2.33-.968-3.508a102.67 102.67 0 01-2.795-16.523.445.445 0 01.327-.512.435.435 0 01.512.327 102.725 102.725 0 003.825 20.215z" fill="#0057C3"/><path d="M42.278 34.561c-.065.215-.119.346-.16.364-.436.161-36.332-26.705-36.654-27.302l2.387 1.02c11.601 6.153 32.87 17.844 32.87 17.844-.066.203 1.217 5.048 1.557 8.074z" fill="#152D5C"/><path d="M42.279 34.56c-.34-3.025-1.624-7.87-1.582-8.073 0 0-22.713-12.317-34.314-18.464 8.755 3.169 37.196 16.112 37.286 16.244.09.131-.835 8.354-1.39 10.294z" fill="#184E90"/><path d="M5.465 7.63c-.758 0 18.374 27.934 18.642 27.88.269-.054 16.59-8.862 16.59-9.023 0-.161-34.475-18.858-35.232-18.858z" fill="#7AC7FF"/><path d="M43.669 24.482c.597.268 10.539-7.943 10.592-8.11.054-.168-48.797-8.952-48.797-8.749 0 .203 37.608 16.59 38.205 16.858z" fill="#7AC7FF"/><circle r="1.23" transform="matrix(-1 0 0 1 85.047 14.293)" fill="#97D5FF"/><path d="M3.488 21.498l.561 1.634a.26.26 0 00.132.154l1.4.654c.198.092.198.42 0 .512l-1.4.654a.26.26 0 00-.132.153l-.56 1.634c-.08.231-.36.231-.44 0l-.56-1.634a.26.26 0 00-.131-.153l-1.401-.654c-.198-.093-.198-.42 0-.512l1.4-.654a.26.26 0 00.132-.154l.56-1.634c.08-.23.36-.23.44 0zM100.647 24.12l.561 1.635c.024.07.071.125.131.153l1.401.654c.198.093.198.42 0 .512l-1.401.654a.258.258 0 00-.131.154l-.561 1.634c-.079.23-.359.23-.439 0l-.56-1.634a.259.259 0 00-.132-.154l-1.4-.654c-.198-.092-.198-.42 0-.512l1.4-.654a.259.259 0 00.132-.153l.56-1.634c.08-.231.36-.231.439 0zM37.844.213l.713 2.01c.03.086.091.154.167.188l1.782.805c.251.113.251.515 0 .63l-1.782.804a.322.322 0 00-.167.188l-.713 2.01c-.1.284-.457.284-.557 0l-.713-2.01a.322.322 0 00-.167-.188l-1.782-.805c-.251-.114-.251-.515 0-.63l1.782-.804a.322.322 0 00.167-.188l.713-2.01c.1-.284.457-.284.557 0z" fill="#97D5FF"/><circle cx="94.311" cy="44.407" r="10.663" fill="#D6EAFF"/><path fill-rule="evenodd" clip-rule="evenodd" d="M94.107 37.611a.718.718 0 00-.98.263l-2.935 5.084a.718.718 0 00.262.98l2.208 1.274c.343.199.782.081.98-.262l1.273-2.205c1.682.048 2.887 1.295 2.887 2.655 0 .471-.144.929-.403 1.328H88.53a.359.359 0 00-.359.358v.61c0 .2.161.36.36.36h6.355-.073v1.993c2.667 0 4.98-2.002 4.98-4.649 0-2.248-1.667-4.03-3.804-4.517l.588-1.017a.718.718 0 00-.263-.98l-2.208-1.275z" fill="#42A5F5"/><path fill-rule="evenodd" clip-rule="evenodd" d="M94.366 37.056l-.305.529 2.3 1.328.305-.529a.718.718 0 00-.262-.98l-1.058-.61a.718.718 0 00-.98.262zM90.65 44.82a.664.664 0 01-.243-.907l2.3 1.328a.664.664 0 01-.907.243l-1.15-.664z" fill="#20469C"/><circle cx="95.807" cy="41.747" r="1.66" fill="#1976D2"/><rect x="89.498" y="49.385" width="9.962" height="1.992" rx="0.718" fill="#1976D2"/><defs><linearGradient id="subscribe-type1_svg__paint0_linear_1963:10505" x1="42.452" y1="13.607" x2="85.449" y2="61.502" gradientUnits="userSpaceOnUse"><stop stop-color="#A8DCFF"/><stop offset="1" stop-color="#fff"/></linearGradient></defs></svg>