<svg xmlns="http://www.w3.org/2000/svg" width="142" height="115" fill="none"><path d="M71.986 48c-38.66 0-70 26.863-70 60h140c0-33.137-31.34-60-70-60z" fill="#007BE9"/><path d="M110.573 25.221a11.274 11.274 0 00-4.073-3.05 11.854 11.854 0 00-5.077-1.01c-1.428-5.03-5.552-9.371-10.374-11.745-7.341-3.655-16.162-3.861-24.227-2.98-8.242.9-16.445 3.386-23.319 7.809-6.269 3.93-11.276 9.424-14.472 15.88-3.338 6.897-3.955 14.705-1.736 21.997a27.122 27.122 0 002.19 5.06c.342.625 1.316.113.994-.487C26.9 50.33 26.236 42.72 28.11 35.773c1.891-6.573 5.762-12.48 11.137-16.993 5.72-4.814 12.595-8.225 20.024-9.933A62.577 62.577 0 0171.23 7.185c3.897-.23 7.81-.001 11.65.681a27.03 27.03 0 0110.373 4.123c2.796 1.93 4.999 4.532 6.38 7.541.257.563.477 1.141.658 1.73-2.445.204-4.726 1.256-6.407 2.955a6.014 6.014 0 00-1.446 2.143 5.763 5.763 0 00-.39 2.518c.072.8.378 1.564.884 2.207a4.503 4.503 0 001.978 1.429c.861.23 1.772.233 2.634.006a4.94 4.94 0 002.254-1.293 7.903 7.903 0 002.111-4.998 13.196 13.196 0 00-.217-3.954c1.955.018 3.867.54 5.532 1.512 6.486 3.842 4.849 12.238 3.026 18.06a69.711 69.711 0 01-10.189 20.167c-4.282 5.866-9.775 12.276-17.563 13.688-1.84.353-3.737.34-5.572-.038-.697-.15-1.052.856-.349 1.006 4.052.868 8.289-.031 11.84-1.95 3.553-1.917 6.487-4.728 9.059-7.72 5.243-6.123 9.386-13.026 12.261-20.43a46.697 46.697 0 003.079-10.989c.46-3.604.072-7.428-2.243-10.358zM99.982 29.07c-.737 1.45-2.236 2.649-4.013 2.542-1.598-.093-2.63-1.424-2.835-2.836-.243-1.618.724-3.167 1.921-4.242a9.055 9.055 0 013.861-2.005 10.92 10.92 0 011.619-.269c.134.618.222 1.244.263 1.874a9.596 9.596 0 01-.816 4.936z" fill="#D9EDFD"/><path d="M90.357 47.93a6.246 6.246 0 00-1.055-.686 1.524 1.524 0 00.624-1.068 1.21 1.21 0 00-.505-1.142 1.248 1.248 0 00-1.443.125 17.48 17.48 0 00-3.614-4.87 31.924 31.924 0 00-1.873-1.648 4.058 4.058 0 00-1.38-3.858 3.259 3.259 0 00-4.082-.03c-1.305-.525-2.666-.95-3.965-.5a3.384 3.384 0 00-2.185 2.085 2.846 2.846 0 00-2.712.175c-.38.235-.7.553-.94.93-1.248 1.873-.518 4.12.306 5.98.624 2.242 3.122 3.609 4.639 4.995a25.057 25.057 0 015.287 6.736 24.543 24.543 0 011.873 4.495.55.55 0 00.625.405c2.705-.57 5.1-2.128 6.717-4.37a10.944 10.944 0 002.004-6.68c.56.107 1.14.055 1.673-.15a.519.519 0 00.287-.436.575.575 0 00-.28-.487z" fill="#17264D"/><path d="M84.152 65.78a16.745 16.745 0 01-2.41 2.147c-3.121 2.247-7.36 3.283-10.975 1.58a7.86 7.86 0 01-4.445-6.244l.718.094.431.056 4.67.624c-.138-.892-.294-1.91-.462-2.84a47.535 47.535 0 00-.206-1.068 5.97 5.97 0 00-.53-1.823l6.81-1.822 1.136 8.49.93.13c.887.126 1.78.25 2.666.394.231.031.462.069.687.113l.98.168z" fill="#F6B399"/><path d="M80.806 51.601a8.572 8.572 0 11-8.572-8.571 8.578 8.578 0 018.572 8.571z" fill="#F6B399"/><path d="M84.152 53.474c-2.366 4.102-8.078 5.238-12.754 2.535-4.407-2.547-6.324-7.585-4.551-11.587.105-.25.228-.492.368-.724.198-.354.428-.688.687-.999 2.66-3.271 7.791-4.008 12.067-1.536 4.651 2.697 6.53 8.216 4.183 12.311z" fill="#F6B399"/><path d="M83.384 56.914a3.484 3.484 0 11-3.477-3.321 3.402 3.402 0 013.477 3.321z" fill="#F6B399"/><path d="M82.004 56.852a5.618 5.618 0 00-3.065-1.118.53.53 0 10-.056 1.062c.125 0 .25 0 .38.03.328.053.65.135.962.244.119.044.231.088.35.144.296.15.58.323.849.518a.53.53 0 00.73-.15.543.543 0 00-.15-.73z" fill="#EE796A"/><path d="M42.562 91.007l-1.198.443c-5.544 2.047-11.175 4.22-17.093 4.676-2.978.224-6.087 0-8.74-1.486a8.74 8.74 0 01-4.558-6.412c-.424-2.89.3-5.8.993-8.59.8-3.246 1.632-6.484 2.497-9.714a587.838 587.838 0 015.307-18.79l-2.03-1.767a66.99 66.99 0 01-3.951-1.13 66.253 66.253 0 01-8.696-3.502 10.14 10.14 0 01-3.49-2.341 3.865 3.865 0 01-.874-3.415 3.259 3.259 0 01-.387-1.873c.143-1.342 1.136-2.635 2.578-2.597a2.822 2.822 0 012.091-1.61c1.249-.107 2.142.898 2.816 1.79a16.367 16.367 0 001.929 2.21 13.379 13.379 0 01-.337-2.172 4.37 4.37 0 01.2-1.872 2.023 2.023 0 011.435-1.287 2.497 2.497 0 012.01.506c1.05.843 1.505 2.223 1.973 3.44a15.05 15.05 0 001.555 3.34 4.459 4.459 0 003.196 1.873c1.614.123 3.235.138 4.85.043l5.226-.068c2.497-.032 5.588.268 6.593 2.99a8.915 8.915 0 01.212 4.139c-.206 1.735-.425 3.477-.624 5.213-.419 3.496-.85 6.998-1.249 10.494-.3 2.497-1.41 5.893-1.71 8.365.445-.29.875-.604 1.285-.942.25-.194.5-.4.743-.624.469-.375.912-.718 1.249-.918a312.842 312.842 0 013.746 12.21 597.205 597.205 0 012.453 9.377z" fill="#F6B399"/><path d="M83.965 55.722c-.082.5-.157.624-.581.343-1.249-.874-3.69-.68-4.626.568-.306.4-.886.625-.849.063a9.651 9.651 0 012.422-5.744c.624-.724 1.318-1.454 1.211-2.497a5.899 5.899 0 00-1.36-2.778c-3.992-.79-7.743-2.5-10.957-4.994a.575.575 0 01.131-.962 2.422 2.422 0 012.11-1.829 10.726 10.726 0 013.696.362c3.914.856 7.854 3.047 9.751 6.718 1.736 3.408 1.674 7.828-.948 10.75zM66.84 46.538a.986.986 0 11.288 1.06.982.982 0 01-.288-1.06z" fill="#17264D"/><path d="M69.487 44.11a.53.53 0 00-.942.487 2.94 2.94 0 01-.787 3.184c-.512.456-1.248.624-1.598 1.249a1.293 1.293 0 00.35 1.766c.624.331 1.18-.555.58-.886-.094-.05-.106-.156-.044-.3.107-.268.475-.424.706-.555a3.977 3.977 0 001.735-4.963v.018z" fill="#EE796A"/><path d="M70.065 43.338a1.337 1.337 0 00-.624-.874c-.625-.424-1.748-.811-2.273.056a1.316 1.316 0 00-.13.244c-.332.974 1.635 1.985 2.403 1.648a1.017 1.017 0 00.624-1.074zM72.546 48.698a.986.986 0 111.87.625.986.986 0 01-1.87-.625z" fill="#17264D"/><path d="M71.204 52.382a.543.543 0 00-.718-.225 7.067 7.067 0 01-3.333.943.537.537 0 00-.556.5.523.523 0 00.5.555 8.115 8.115 0 003.882-1.062.543.543 0 00.225-.711zM16.354 44.81c-3.34-2.06-5.986-5.7-6.505-9.646a3.29 3.29 0 011.024-3.121c.543-.412-.168-1.199-.705-.78-2.035 1.56-1.467 4.488-.724 6.573a15.22 15.22 0 006.33 7.86c.58.356 1.161-.53.58-.887z" fill="#EE796A"/><path d="M15.019 45.858a23.915 23.915 0 01-8.74-5.656c-1.15-1.174-2.541-2.591-2.828-4.27a2.403 2.403 0 01.524-1.986 1.474 1.474 0 011.667-.493 3.89 3.89 0 011.654 1.742c.624.974 1.186 1.954 1.78 2.928.349.58 1.292.1.936-.487l-1.773-2.928a5.943 5.943 0 00-1.736-1.998 2.498 2.498 0 00-2.497-.143 3.259 3.259 0 00-1.536 1.966c-.568 1.98.756 3.84 1.973 5.257a24.872 24.872 0 0010.213 7.073c.668.23 1-.774.363-1.005z" fill="#EE796A"/><path d="M14.57 47.475a26.042 26.042 0 01-7.998-3.459 24.153 24.153 0 01-3.471-2.697c-.936-.886-1.96-2.01-2.066-3.365-.081-1.073.624-2.497 1.873-2.46a.53.53 0 00.05-1.054 3.028 3.028 0 00-2.829 2.347c-.418 1.505.232 2.984 1.174 4.151a18.606 18.606 0 003.602 3.216 27.837 27.837 0 004.177 2.497 27.082 27.082 0 005.163 1.872c.649.12.986-.886.324-1.048z" fill="#EE796A"/><path d="M9.419 45.914c-1.805-.836-3.833-1.111-5.619-2.041-1.517-.805-2.89-2.266-2.572-4.108a.53.53 0 00-.5-.556.537.537 0 00-.555.5c-.356 2.054 1.074 3.908 2.76 4.888 1.916 1.111 4.145 1.398 6.136 2.322a.53.53 0 00.668-.33.556.556 0 00-.318-.675z" fill="#EE796A"/><path d="M104.803 107.918a.542.542 0 01-.331.244.563.563 0 01-.462-.125H56.427a.557.557 0 01-.743-.043.554.554 0 01-.137-.232c-.5-1.852-.96-3.714-1.38-5.587a134.45 134.45 0 01-2.497-14.683c-2.709 1.13-5.456 2.172-8.203 3.177l-.899.331a977.769 977.769 0 00-2.547-9.364 344.329 344.329 0 00-3.745-12.211l.624-.374a69.577 69.577 0 018.222-4.708 26.721 26.721 0 014.426-1.585c1.84-.44 3.727-.65 5.618-.625 2.066.047 4.127.21 6.175.487l3.027.381 1.055.131.937.119a7.86 7.86 0 004.445 6.243c3.614 1.704 7.86.668 10.975-1.58a16.74 16.74 0 002.41-2.147l1.117.218.861.188c1.499.343 2.962.826 4.37 1.442a17.58 17.58 0 017.336 6.243 27.387 27.387 0 013.745 8.777c1.873 7.491 1.249 15.326 2.941 22.855.125.624.193 1.092.262 1.567a.578.578 0 01.188.435.554.554 0 01-.207.426z" fill="#7AC7FF"/><path d="M65.217 84.857a.424.424 0 01-.174.475c-.075.062-.15.106-.231.162-.287.406-.506.456-.7.406a6.243 6.243 0 01-6.748-.943c-2.247-2.022-1.985-5.319-3.246-7.86a8.739 8.739 0 00-4.314-4.163c-.693-.294-1.423-.462-2.11-.775a3.322 3.322 0 01-1.605-1.36 2.066 2.066 0 01-.068-2.055 2.221 2.221 0 011.816-1.042 6.13 6.13 0 01-.861-.3c-1.168-.5-2.091-1.517-1.873-2.865a2.497 2.497 0 011.248-1.81 3.572 3.572 0 01-.33-.281 2.397 2.397 0 01-.469-2.866c.675-1.049 2.073-.924 3.122-.805a18.941 18.941 0 018.59 3.252 15.245 15.245 0 00-2.497-3.995 14.344 14.344 0 00-1.405-1.417c-.5-.392-.946-.85-1.323-1.361a2.041 2.041 0 011.005-3.003c1.31-.568 2.64.056 3.658.905a17.337 17.337 0 012.71 2.91c3.121 4.176 4.557 9.295 5.843 14.277.081.07.138.164.162.268.312 1.205.624 2.416.868 3.64.674 3.533.787 7.447-1.068 10.606z" fill="#F6B399"/><path d="M94.003 94.677c-3.82 8.06-6.293 12.867-10.27 17.155-2.603 2.81-4.881 2.81-9.27 2.81-6.112 0-10.407-4.995-13.828-17.287-.936-3.352-3.271-12.417-3.271-12.417s3.171-7.41 3.708-7.853c.537-.443 4.726-3.559 4.726-3.559l8.64 17.867.45.93a9.56 9.56 0 00.624-1.036 26.06 26.06 0 002.303-5.737l16.188 9.127z" fill="#F6B399"/><path d="M95.133 92.342l-16.737-8.74c1.423-4.832 3.121-9.92 4.539-11.705 2.94-3.746 7.666-6.486 14.57 1.436 4.277 4.913.893 12.23-2.372 19.01z" fill="#7AC7FF"/><path d="M58.269 72.515a17.842 17.842 0 00-4.926-3.396 16.808 16.808 0 00-2.828-1.024 7.11 7.11 0 00-3.19-.325 2.454 2.454 0 00-2.029 2.104c-.062.68 1 .73 1.055.056.1-1.142 1.555-1.248 2.404-1.13 1.096.166 2.168.46 3.196.874a16.514 16.514 0 015.538 3.546c.487.475 1.273-.23.78-.705z" fill="#EE796A"/><path d="M59.705 68.033a15.427 15.427 0 00-7.198-5.157 12.525 12.525 0 00-4.564-.786c-1.51.068-3.19.855-3.408 2.528a2.91 2.91 0 00.886 2.341 6.544 6.544 0 002.466 1.398.53.53 0 00.337-1.005c-1.098-.406-2.79-1.13-2.64-2.578.15-1.448 1.816-1.673 2.903-1.63a13.958 13.958 0 017.291 2.579 14.302 14.302 0 013.122 3.021c.437.537 1.223-.174.805-.711z" fill="#EE796A"/><path d="M60.46 64.237a14.564 14.564 0 00-6.667-4.957 21.645 21.645 0 00-4.307-1.249c-1.436-.25-3.09-.137-4.177.962-1.086 1.099-1.142 2.959.169 3.87.561.394 1.136-.493.58-.886-.88-.624-.505-1.873.212-2.422 1.068-.83 2.554-.625 3.746-.337a19.185 19.185 0 016.761 2.859 11.761 11.761 0 012.866 2.859.53.53 0 00.742.044.543.543 0 00.076-.743zM77.048 59.96a11.237 11.237 0 01-5.37 1.25 48.002 48.002 0 00-.205-1.068 10.152 10.152 0 005.088-1.112.53.53 0 01.487.93zM34.315 70.954l-1.979 9.72a.53.53 0 01-.668.337.55.55 0 01-.337-.667l1.748-8.447c.43-.292.842-.606 1.236-.943zM78.933 100.92a8794.726 8794.726 0 00-4.445-9.364c-.05-.156.4.774.4.774a9.56 9.56 0 00.624-1.037c1.448 3.034 2.896 6.081 4.37 9.115.287.631-.65 1.136-.95.512z" fill="#EE796A"/><path d="M76.036 44.485a3.12 3.12 0 00-1.58-.406 1.135 1.135 0 00-.973.474.887.887 0 000 .95c.118.586 1.142.86 1.61 1.035.762.281 1.48.625 2.21.962a.537.537 0 00.687-.624 4.126 4.126 0 00-1.954-2.391z" fill="#17264D"/><path d="M55.94 108.118h-1.098c-.417-1.415-.81-2.841-1.18-4.276a125.19 125.19 0 01-3.409-20.146.543.543 0 01.4-.624.53.53 0 01.624.4 125.216 125.216 0 004.663 24.647zM52.177 33.843c-.08.262-.145.422-.196.444-.531.197-44.295-32.559-44.688-33.286l2.91 1.244c14.144 7.501 40.075 21.754 40.075 21.754-.08.248 1.485 6.156 1.9 9.844z" fill="#0057C3"/><path d="M52.178 33.843c-.415-3.689-1.98-9.597-1.928-9.844 0 0-27.692-15.017-41.836-22.511 10.674 3.863 45.35 19.644 45.46 19.805.108.16-1.02 10.186-1.696 12.55z" fill="#007BE9"/><path d="M7.294 1.007c-.924 0 22.402 34.058 22.73 33.993.327-.066 20.226-10.805 20.226-11.001 0-.197-42.032-22.992-42.956-22.992z" fill="#fff"/><path d="M53.873 21.554c.727.328 12.849-9.684 12.914-9.887C66.853 11.463 7.293.753 7.293 1c0 .248 45.852 20.227 46.58 20.554z" fill="#fff"/><circle r="1.5" transform="matrix(-1 0 0 1 101.486 12.5)" fill="#D9EDFD"/><path d="M4.253 19.211l.684 1.992c.03.086.087.153.16.188l1.708.797c.241.113.241.511 0 .624l-1.708.797a.316.316 0 00-.16.188l-.684 1.992c-.096.281-.438.281-.535 0l-.683-1.992a.316.316 0 00-.16-.188l-1.708-.797c-.241-.113-.241-.511 0-.624l1.708-.797a.316.316 0 00.16-.188l.683-1.992c.097-.281.439-.281.535 0z" fill="#fff"/></svg>